PathFileType	4	(X/Y/Z)	Kaydara																																																																																																																									
DataRate	CameraRate	NumFrames	NumMarkers	Units	OrigDataRate	OrigDataStartFrame	OrigNumFrames																																																																																																																					
30	30	4	41	mm	30	168	174																																																																																																																					
Frame#	Time	SALE_LFHD			SALE_RFHD			SALE_LBHD			SALE_RBHD			SALE_LFTShould			SALE_RFTShould			SALE_LRRShould			SALE_RRRShould			SALE_T10			SALE_STRN			SALE_TRUN			SALE_LSHO			SALE_LUPA			SALE_LELB			SALE_LFRM			SALE_LWRA			SALE_LWRB			SALE_LFIN			SALE_RSHO			SALE_RUPA			SALE_RELB			SALE_RFRM			SALE_RWRB			SALE_RFIN			SALE_LFWT			SALE_RFWT			SALE_LBWT			SALE_RBWT			SALE_LTHI			SALE_LKNE			SALE_RWRA			SALE_LSHN			SALE_LANK			SALE_LHEE			SALE_LTOE			SALE_RTHI			SALE_RKNE			SALE_RSHN			SALE_RANK			SALE_RHEE			SALE_RTOE		
		X1	Y1	Z1	X2	Y2	Z2	X3	Y3	Z3	X4	Y4	Z4	X5	Y5	Z5	X6	Y6	Z6	X7	Y7	Z7	X8	Y8	Z8	X9	Y9	Z9	X10	Y10	Z10	X11	Y11	Z11	X12	Y12	Z12	X13	Y13	Z13	X14	Y14	Z14	X15	Y15	Z15	X16	Y16	Z16	X17	Y17	Z17	X18	Y18	Z18	X19	Y19	Z19	X20	Y20	Z20	X21	Y21	Z21	X22	Y22	Z22	X23	Y23	Z23	X24	Y24	Z24	X25	Y25	Z25	X26	Y26	Z26	X27	Y27	Z27	X28	Y28	Z28	X29	Y29	Z29	X30	Y30	Z30	X31	Y31	Z31	X32	Y32	Z32	X33	Y33	Z33	X34	Y34	Z34	X35	Y35	Z35	X36	Y36	Z36	X37	Y37	Z37	X38	Y38	Z38	X39	Y39	Z39	X40	Y40	Z40	X41	Y41	Z41
																																																																																																																												
153	5.567	174.13181	1607.01447	2874.73175	41.57962	1616.54495	2878.11707	165.66031	1578.80524	2744.26025	37.48618	1586.54465	2752.41608	162.9471	1351.02661	2844.32678	24.22718	1351.57455	2853.45642	153.02443	1397.63824	2728.36639	3.32705	1405.34775	2742.18353	72.4004	1241.94649	2683.37616	90.56654	1285.70877	2901.96991	89.35483	1205.09567	2952.80792	273.2144	1372.30286	2768.25287	314.77251	1159.22943	2794.67712	303.59987	1047.25357	2809.38782	333.08842	980.28984	2905.83282	279.8786	940.00198	3056.5976	340.39684	900.20844	3031.61407	344.99382	912.58125	3091.8985	-84.80653	1378.6058	2794.58893	-121.29128	1150.56419	2741.68915	-156.23283	1052.06825	2784.93225	-153.75662	939.72343	2773.76495	-187.1011	804.19777	2811.62292	-200.33844	757.25098	2858.78998	215.27725	946.23413	2911.74896	-62.74022	937.17369	2903.80096	158.39335	993.05634	2737.38831	-20.00582	992.78595	2734.76837	211.05213	641.62376	2749.47723	206.62415	470.67047	2822.0816	-144.83686	805.62325	2871.84937	205.6283	272.63649	2814.47144	199.69488	89.20228	2761.04675	157.95289	39.59213	2696.28784	169.05748	19.2239	2925.58289	-63.33451	673.5598	2784.50012	-51.75402	531.20743	2913.98895	-11.6647	317.28634	2900.63354	-63.73113	78.08219	2811.73584	-58.08834	22.75854	2946.31439	-24.64778	27.38051	2743.31116
154	5.6	171.14964	1609.25262	2884.49524	38.63452	1618.77472	2887.99988	162.45642	1579.47739	2754.43573	34.66747	1587.08954	2762.29309	160.06725	1353.30109	2855.91949	21.16065	1353.94165	2864.80865	150.01142	1399.40399	2739.98688	0.54279	1407.0224	2753.5321	69.75123	1243.6554	2694.97955	87.61716	1287.9805	2913.42041	86.41229	1207.28554	2964.20807	270.39988	1373.98224	2779.76746	310.55813	1159.86244	2802.09534	297.17068	1047.54654	2813.88153	326.27171	975.82703	2907.02454	272.73331	928.42056	3055.65826	332.40566	889.08043	3028.53241	337.47246	898.33069	3089.57916	-87.53443	1380.62317	2805.35553	-124.46817	1152.40051	2753.98132	-159.22048	1054.33228	2798.23669	-156.28238	941.13235	2789.99725	-188.82429	806.38245	2832.20367	-202.90783	761.97807	2881.14594	212.82745	946.71951	2922.83783	-65.29218	939.74983	2916.58844	155.06256	994.80408	2749.1449	-22.67785	996.56013	2747.47528	205.02157	643.73436	2758.09143	203.31818	471.89854	2828.41003	-147.35121	810.47844	2892.40021	202.66552	273.57641	2817.86102	196.25153	90.91876	2762.19055	153.34661	41.71067	2697.52258	168.12878	19.32479	2926.49506	-70.82761	678.07159	2789.24347	-58.05686	531.21906	2908.90198	-15.28804	317.87268	2897.33856	-65.28207	78.24842	2811.25031	-60.05888	23.33534	2944.81628	-25.123	27.22795	2743.59772
155	5.633	168.03736	1610.3624	2893.61084	35.48921	1619.76883	2896.9162	159.61261	1578.99139	2764.1449	31.32061	1586.6124	2772.06268	157.65748	1354.01199	2866.87622	18.73024	1354.36371	2875.5307	147.81765	1400.09674	2751.11786	-1.71518	1407.2319	2764.16748	67.74063	1244.1124	2705.74554	85.3178	1288.67294	2924.38843	84.26611	1207.8138	2974.95819	268.08411	1374.46091	2790.85785	307.01817	1159.48364	2809.70337	291.86937	1047.23717	2819.56024	320.75787	968.6985	2907.23328	266.51943	910.01404	3051.81061	325.33466	871.84044	3021.25366	330.1025	875.27802	3083.19366	-89.80076	1380.88409	2815.53192	-126.68541	1152.57668	2764.76379	-161.80162	1054.60861	2810.0766	-158.37863	940.66864	2805.76141	-190.02422	807.19902	2853.62244	-205.11391	765.74478	2904.55933	211.40987	945.60753	2932.24792	-67.05911	940.35759	2928.02917	152.138	995.64774	2759.59229	-25.26972	998.97507	2759.37836	200.64409	643.78433	2765.2475	200.40829	471.35902	2833.52081	-150.1212	815.18562	2914.40826	199.96216	273.13787	2820.66193	193.11451	91.27283	2762.68951	149.27316	42.116	2698.22876	167.45432	19.38363	2926.95679	-79.21375	682.44698	2790.98083	-62.92231	530.23266	2904.16412	-17.72333	318.40572	2892.65137	-67.07169	79.70619	2810.85449	-59.07057	25.19967	2942.29889	-25.8172	27.34982	2742.61749
156	5.667	164.82433	1610.09766	2902.23785	32.20633	1618.88733	2904.88495	156.9758	1576.55853	2773.25806	28.78511	1583.81958	2780.47028	155.64116	1352.81876	2877.0224	16.91314	1352.80609	2885.58655	145.81845	1398.92044	2761.39404	-3.67944	1405.34622	2774.14154	65.83261	1242.63969	2715.8197	83.76193	1287.13913	2934.57642	82.98112	1206.07582	2984.87946	265.91648	1372.96463	2800.31219	304.72956	1157.87987	2819.32892	288.21829	1045.29861	2827.92114	316.67776	959.34357	2907.14142	260.9952	885.01907	3043.93738	319.72258	850.58037	3009.97559	323.20332	844.99001	3071.84631	-91.73791	1378.98132	2825.61554	-128.1522	1150.66963	2774.92065	-164.04463	1052.78267	2820.82703	-160.10475	937.93365	2821.25732	-190.84394	806.38992	2875.59998	-206.82293	768.6972	2928.8916	210.17735	942.75238	2940.97351	-68.89349	938.98857	2938.40363	150.05934	994.58542	2768.98773	-27.19313	999.42474	2770.18188	197.76691	642.14622	2770.88013	198.21573	469.56615	2837.44019	-152.46106	818.90724	2936.78558	198.23189	271.25498	2822.14508	191.15658	90.16913	2762.65472	146.72131	40.8297	2698.39874	167.32292	19.38501	2927.14752	-83.12896	686.53175	2786.81793	-65.19933	525.79838	2894.0802	-21.95073	317.58949	2887.44141	-70.28127	83.01884	2810.39063	-60.08663	24.97638	2944.36432	-25.89765	26.78797	2741.91345
